<svg width="98" height="24" viewBox="0 0 98 24" fill="none" xmlns="http://www.w3.org/2000/svg">
<g clip-path="url(#clip0_1_1562)">
<path d="M7.87972 0.776337C9.19482 0.776337 10.3666 1.06016 11.3951 1.62782C12.4404 2.17877 12.9631 3.04695 12.9631 4.23234C12.9631 4.96695 12.727 5.55129 12.2549 5.98538C11.7997 6.40277 11.2517 6.61147 10.6111 6.61147C9.98725 6.61147 9.46459 6.42782 9.04308 6.06051C8.62157 5.69321 8.41082 5.21738 8.41082 4.63303C8.41082 4.04869 8.58785 3.57286 8.94192 3.20556C9.29598 2.83825 9.73435 2.6546 10.257 2.6546C10.7797 2.6546 11.2012 2.80486 11.5215 3.10538C11.8419 3.38921 12.002 3.68138 12.002 3.9819C12.002 4.29912 11.9514 4.54121 11.8503 4.70816C11.7491 4.87512 11.6985 5.00034 11.6985 5.08382C11.6985 5.23408 11.7744 5.30921 11.9262 5.30921C12.0779 5.30921 12.2043 5.20069 12.3055 4.98364C12.4235 4.7666 12.4825 4.50782 12.4825 4.20729C12.4825 3.50608 12.2043 2.89669 11.648 2.37912C11.1084 1.86156 10.3835 1.60277 9.47301 1.60277C8.57942 1.60277 7.79542 1.94503 7.12102 2.62956C6.46347 3.31408 6.13469 4.14886 6.13469 5.1339C6.13469 6.11895 6.40446 6.95373 6.94398 7.63825C7.48351 8.32277 8.2085 8.66503 9.11895 8.66503C9.37185 8.66503 9.91138 8.48138 10.7375 8.11408L10.9398 8.53982C9.25383 9.3579 8.09891 10.1593 7.47508 10.944C6.86811 11.712 6.56463 12.6887 6.56463 13.8741C6.56463 15.0428 6.79224 16.0362 7.24747 16.8542C7.71955 17.6556 8.50355 18.0563 9.59947 18.0563C10.7122 18.0563 11.6058 17.7308 12.2802 17.0796C12.9546 16.4285 13.2918 15.6438 13.2918 14.7256C13.2918 14.2581 13.1822 14.0243 12.9631 14.0243C12.7945 14.0243 12.7102 14.0995 12.7102 14.2497C12.7102 14.2831 12.727 14.3416 12.7607 14.425C12.7945 14.5085 12.8113 14.6421 12.8113 14.8257C12.8113 15.2765 12.6427 15.6271 12.3055 15.8776C11.9683 16.1113 11.5637 16.2282 11.0916 16.2282C10.6195 16.2282 10.198 16.0445 9.82708 15.6772C9.47301 15.3099 9.29598 14.8341 9.29598 14.2497C9.29598 13.6654 9.48987 13.1812 9.87766 12.7972C10.2823 12.3965 10.8134 12.1962 11.4709 12.1962C12.1285 12.1962 12.6764 12.4299 13.1148 12.8974C13.5532 13.3482 13.7723 13.9409 13.7723 14.6755C13.7723 15.9443 13.216 16.9878 12.1032 17.8059C11.0073 18.624 9.414 19.033 7.32334 19.033C5.23267 19.033 3.64781 18.5405 2.56876 17.5555C1.50656 16.5704 0.975464 15.4351 0.975464 14.1496C0.975464 12.864 1.44755 11.7955 2.39172 10.944C3.3359 10.0925 4.69314 9.54156 6.46347 9.29112L6.3876 9.06573C4.80274 9.01564 3.59723 8.61495 2.77108 7.86364C1.94493 7.09564 1.53185 6.21077 1.53185 5.20903C1.53185 3.90677 2.13039 2.8466 3.32747 2.02851C4.5414 1.19373 6.05882 0.776337 7.87972 0.776337ZM22.1348 9.51651L24.1327 13.7238C25.0601 15.7273 25.6586 16.8292 25.9284 17.0296C26.0632 17.1464 26.215 17.2049 26.3836 17.2049C26.5522 17.2049 26.7208 17.1214 26.8894 16.9544C27.058 16.7708 27.1844 16.5955 27.2687 16.4285L27.3952 16.1781L27.8251 16.2783C27.5554 16.9795 27.058 17.6139 26.333 18.1816C25.608 18.7492 24.7566 19.033 23.7787 19.033C22.8008 19.033 22.0505 18.8076 21.5278 18.3569C21.022 17.8894 20.4909 17.0713 19.9345 15.9026L19.7069 15.4769C18.7628 17.8476 17.5235 19.033 15.9893 19.033C15.2474 19.033 14.6489 18.8243 14.1936 18.4069C13.7553 17.9729 13.5361 17.4469 13.5361 16.8292C13.5361 16.2115 13.7131 15.6939 14.0672 15.2765C14.4381 14.8424 14.9271 14.6254 15.534 14.6254C16.1579 14.6254 16.6384 14.809 16.9756 15.1763C17.3296 15.5436 17.5067 15.9527 17.5067 16.4035C17.5067 16.8543 17.3549 17.2466 17.0514 17.5805C16.7648 17.8977 16.3602 18.073 15.8375 18.1064C15.6352 18.1064 15.534 18.1899 15.534 18.3569C15.534 18.5071 15.6858 18.5823 15.9893 18.5823C17.0009 18.5823 17.8776 17.9478 18.6194 16.6789C18.8555 16.2949 19.1337 15.7023 19.454 14.9009L17.8607 11.52C17.1863 10.1009 16.7311 9.21599 16.4951 8.86538C16.2759 8.49808 16.0398 8.31442 15.7869 8.31442C15.534 8.31442 15.3064 8.40625 15.1041 8.5899C14.9018 8.77356 14.75 8.95721 14.6489 9.14086L14.5224 9.41634L14.0672 9.34121C14.3707 8.6066 14.8596 7.96382 15.534 7.41286C16.2084 6.84521 17.0177 6.56138 17.9619 6.56138C18.9229 6.56138 19.6985 6.75338 20.2886 7.13738C20.8787 7.52138 21.4098 8.14747 21.8819 9.01564C22.236 8.29773 22.6912 7.71338 23.2476 7.2626C23.804 6.79512 24.4278 6.56138 25.1191 6.56138C25.8103 6.56138 26.3751 6.77842 26.8135 7.21251C27.2687 7.6299 27.4964 8.14747 27.4964 8.76521C27.4964 9.38295 27.3109 9.90886 26.94 10.3429C26.5859 10.7603 26.097 10.969 25.4731 10.969C24.8662 10.969 24.3856 10.7854 24.0316 10.4181C23.6944 10.0508 23.5258 9.64173 23.5258 9.19095C23.5258 8.74016 23.6691 8.35616 23.9557 8.03895C24.2592 7.70503 24.6723 7.52138 25.1949 7.48799C25.3973 7.48799 25.4984 7.41286 25.4984 7.2626C25.4984 7.09564 25.2877 7.01216 24.8662 7.01216C24.4447 7.01216 23.9641 7.25425 23.4246 7.73842C22.8851 8.2059 22.4552 8.7986 22.1348 9.51651ZM34.5869 17.2299V23.5158H36.4837V23.9165H28.239V23.5158H29.807V7.4379H28.0114V7.03721H29.5289C31.3666 7.03721 33.0526 6.8786 34.5869 6.56138V8.76521H34.7134C35.0337 7.96382 35.4721 7.39616 36.0285 7.06225C36.6017 6.72834 37.3436 6.56138 38.254 6.56138C39.8389 6.56138 40.9938 7.13738 41.7188 8.28938C42.4606 9.44138 42.8316 10.9273 42.8316 12.7471C42.8316 14.5669 42.4101 16.0696 41.5671 17.2549C40.7409 18.4236 39.5354 19.008 37.9505 19.008C36.3825 19.008 35.3035 18.4153 34.7134 17.2299H34.5869ZM34.4858 12.7722V13.4483C34.4858 14.9176 34.6797 16.0612 35.0674 16.8793C35.4552 17.6807 35.902 18.0814 36.4078 18.0814C37.2846 18.0814 37.7229 16.3116 37.7229 12.7722C37.7229 11.0024 37.6302 9.71686 37.4447 8.91547C37.2761 8.09738 36.9305 7.68834 36.4078 7.68834C35.8009 7.68834 35.3288 8.21425 34.9916 9.26608C34.6544 10.3179 34.4858 11.4866 34.4858 12.7722ZM45.6725 18.1565V1.65286H43.8769V1.25216H45.3943C47.2321 1.25216 48.9181 1.09356 50.4524 0.776337V18.1565H52.071V18.5572H44.1045V18.1565H45.6725ZM64.2649 17.3301C63.0341 18.4654 61.424 19.033 59.4345 19.033C57.4449 19.033 55.8348 18.4654 54.604 17.3301C53.3732 16.1781 52.7578 14.6671 52.7578 12.7972C52.7578 10.9273 53.3732 9.42469 54.604 8.28938C55.8348 7.13738 57.4449 6.56138 59.4345 6.56138C61.424 6.56138 63.0341 7.13738 64.2649 8.28938C65.4957 9.42469 66.1111 10.9273 66.1111 12.7972C66.1111 14.6671 65.4957 16.1781 64.2649 17.3301ZM60.6484 17.3301C60.8844 16.4786 61.0025 14.9676 61.0025 12.7972C61.0025 10.6268 60.8844 9.12416 60.6484 8.28938C60.4292 7.4379 60.0246 7.01216 59.4345 7.01216C58.8443 7.01216 58.4313 7.4379 58.1952 8.28938C57.976 9.12416 57.8665 10.6268 57.8665 12.7972C57.8665 14.9676 57.976 16.4786 58.1952 17.3301C58.4313 18.1649 58.8443 18.5823 59.4345 18.5823C60.0246 18.5823 60.4292 18.1649 60.6484 17.3301ZM73.3793 8.5899H73.5058C73.7755 7.98886 74.1549 7.50469 74.6438 7.13738C75.1328 6.75338 75.7229 6.56138 76.4142 6.56138C77.1223 6.56138 77.7208 6.79512 78.2098 7.2626C78.7156 7.71338 78.9685 8.26434 78.9685 8.91547C78.9685 9.5666 78.7746 10.1092 78.3868 10.5433C77.999 10.9774 77.5016 11.1944 76.8947 11.1944C76.2877 11.1944 75.7903 11.0191 75.4025 10.6685C75.0316 10.3179 74.8462 9.88381 74.8462 9.36625C74.8462 8.83199 74.9979 8.3979 75.3014 8.06399C75.6217 7.71338 76.0179 7.53808 76.49 7.53808C76.9621 7.53808 77.3415 7.70503 77.6281 8.03895C77.763 8.28938 77.8979 8.4146 78.0327 8.4146C78.1845 8.4146 78.2604 8.33947 78.2604 8.18921C78.2604 8.08903 78.2098 7.96382 78.1086 7.81355C77.704 7.27929 77.1307 7.01216 76.3889 7.01216C74.3151 7.01216 73.2782 9.06573 73.2782 13.1729V18.1565H75.1749V18.5572H67.0315V18.1565H68.5995V7.4379H66.8038V7.03721H68.3213C70.159 7.03721 71.845 6.8786 73.3793 6.56138V8.5899ZM84.1799 13.7989C84.1799 15.3183 84.3653 16.4702 84.7363 17.2549C85.124 18.0396 85.8237 18.432 86.8354 18.432C87.8638 18.432 88.749 18.1064 89.4908 17.4553C90.2495 16.8042 90.7385 15.9276 90.9577 14.8257L91.0083 14.6003L91.4635 14.6755C91.2274 16.0445 90.6458 17.113 89.7185 17.881C88.7911 18.649 87.5856 19.033 86.1019 19.033C83.8595 19.033 82.1229 18.5071 80.8921 17.4553C79.6613 16.3868 79.0459 14.8591 79.0459 12.8723C79.0459 10.8856 79.636 9.34121 80.8163 8.23929C81.9965 7.12069 83.5982 6.56138 85.6214 6.56138C87.2737 6.56138 88.6478 6.87025 89.7437 7.48799C90.8565 8.08903 91.4129 9.02399 91.4129 10.2929C91.4129 11.5617 90.8987 12.4633 89.8702 12.9976C88.8417 13.5318 87.5013 13.7989 85.849 13.7989H84.1799ZM84.1546 11.545V13.3482H84.7868C85.5455 13.3482 86.0682 13.0977 86.3548 12.5969C86.6583 12.0793 86.8101 11.328 86.8101 10.3429C86.8101 8.12242 86.4138 7.01216 85.6214 7.01216C85.0988 7.01216 84.7194 7.31269 84.4834 7.91373C84.2642 8.51477 84.1546 9.72521 84.1546 11.545Z" fill="#EAECF0"/>
<path d="M95.2478 19.0331C94.5902 19.0331 94.0254 18.8077 93.5533 18.3569C93.0981 17.8894 92.8705 17.3301 92.8705 16.679C92.8705 16.0111 93.0981 15.4518 93.5533 15.0011C94.0254 14.5336 94.5987 14.2998 95.2731 14.2998C95.9475 14.2998 96.5123 14.5336 96.9675 15.0011C97.4227 15.4518 97.6503 16.0111 97.6503 16.679C97.6503 17.3301 97.4143 17.8894 96.9422 18.3569C96.487 18.8077 95.9222 19.0331 95.2478 19.0331Z" fill="#FF6C00"/>
</g>
<defs>
<clipPath id="clip0_1_1562">
<rect width="98" height="24" fill="white"/>
</clipPath>
</defs>
</svg>
